# xmcd CD database file
# Copyright (C) 1997 Ti Kan
# 
# Track frame offsets:
#     182
#     12997
#     26787
#     39560
#     48270
#     60290
#     68400
#     79600
#     89267
#     102752
#     112610
#     121055
# 
# Disc length: 1773 seconds
# 
# Revision: 1
# Processed by: cddbd v1.4b41PL1 Copyright (c) Steve Scherf et al.
# Submitted via: DiscPlay 4.0.4
# 
DISCID=7f06eb0c
DTITLE=TINA Turner  ,Ike and The Ikettes - IT's Gonna Work Out Fine
DYEAR=1900
DGENRE=
TTITLE0=I Idolize You
TTITLE1=It's Gonna Work Out Fine
TTITLE2=A Fool In Love
TTITLE3=Chicken Shack
TTITLE4=Am I A fool In Love
TTITLE5=Don't Blame It On Me
TTITLE6=Hurt Is All You Gave Me
TTITLE7=Too Hot To Hold
TTITLE8=It's Crazy Baby
TTITLE9=Goodbye So Long
TTITLE10=I Wish My Dreams Would Come True
TTITLE11=So Fine
EXTD=
EXTT0=
EXTT1=
EXTT2=
EXTT3=
EXTT4=
EXTT5=
EXTT6=
EXTT7=
EXTT8=
EXTT9=
EXTT10=
EXTT11=
PLAYORDER=
